<svg width="75" height="78" viewBox="0 0 75 78" fill="none" xmlns="http://www.w3.org/2000/svg">
<path d="M3.39993 40.0999H15.9999C16.414 40.1002 16.8187 40.2232 17.1632 40.4529L29.7632 48.8529C30.1374 49.1036 30.4213 49.4679 30.5725 49.8921C30.7238 50.3164 30.7345 50.7781 30.6033 51.209C30.4725 51.6406 30.2063 52.0187 29.844 52.2872C29.4817 52.5557 29.0424 52.7004 28.5915 52.6999H15.9915C15.5774 52.6996 15.1727 52.5769 14.8282 52.3472L2.22816 43.9472C1.85397 43.6965 1.57038 43.332 1.41913 42.9077C1.26787 42.4834 1.25692 42.022 1.38811 41.5911C1.51889 41.1595 1.78509 40.7814 2.14741 40.5129C2.50973 40.2444 2.94895 40.0995 3.39993 40.0999ZM15.3657 44.2999H10.3257L16.6257 48.4999H21.6657L15.3657 44.2999Z" fill="white"/>
<path d="M53.7998 27.5001C54.2139 27.5004 54.6186 27.6231 54.9632 27.8528L67.5632 36.2528C67.8649 36.4541 68.1096 36.73 68.273 37.0539C68.4364 37.3777 68.5132 37.7385 68.4957 38.1008C68.4782 38.4637 68.3668 38.8159 68.1725 39.1229C67.9781 39.4298 67.7073 39.6811 67.3868 39.8522L59.5118 44.0522C59.1852 44.2239 58.8192 44.3066 58.4505 44.2919C58.0818 44.2771 57.7236 44.1656 57.4118 43.9683L44.2868 35.5683C43.9737 35.3682 43.7195 35.0886 43.5498 34.758C43.3801 34.4275 43.301 34.0578 43.3209 33.6868C43.3405 33.3158 43.4582 32.9566 43.6618 32.646C43.8655 32.3354 44.1477 32.0844 44.4801 31.9185L52.8801 27.7185C53.1661 27.5767 53.4806 27.502 53.7998 27.5001ZM62.3132 37.7983L53.6486 32.0233L49.646 34.0269L58.6215 39.7724L62.3132 37.7983Z" fill="white"/>
<path d="M57.9999 39.8018C58.3457 39.8016 58.6863 39.8868 58.9912 40.0497L67.3912 44.5479C67.7597 44.7453 68.0609 45.0483 68.2562 45.4179C68.4515 45.7875 68.5319 46.2071 68.4874 46.6227C68.4424 47.0382 68.2745 47.4307 68.0052 47.7502C67.7359 48.0696 67.3773 48.3016 66.9755 48.4161L37.5754 56.8161C37.07 56.9599 36.5289 56.909 36.0592 56.6734L27.6592 52.4734C27.2827 52.2846 26.9715 51.987 26.7663 51.6192C26.5611 51.2515 26.4713 50.8305 26.5084 50.411C26.5458 49.9917 26.7083 49.5933 26.975 49.2675C27.2416 48.9417 27.5998 48.7036 28.0034 48.584L57.4034 39.8859C57.5972 39.8294 57.7981 39.801 57.9999 39.8018ZM60.8393 45.8078L57.769 44.1615L34.3034 51.1039L37.2099 52.5572L60.8393 45.8078Z" fill="white"/>
<path d="M41.2001 23.3C41.5898 23.3 41.9719 23.4085 42.3034 23.6133C42.635 23.818 42.903 24.1108 43.0776 24.4592L47.2776 32.8592C47.4153 33.1354 47.4903 33.4387 47.4976 33.7472C47.5048 34.0557 47.444 34.3618 47.3194 34.6441C47.1951 34.9261 47.0103 35.1774 46.778 35.3799C46.5457 35.5824 46.2719 35.7314 45.9756 35.8162L16.5756 44.2162C16.1045 44.3512 15.6009 44.3172 15.1521 44.12C14.7034 43.9229 14.3378 43.5751 14.1185 43.1367L9.91854 34.7367C9.78081 34.4605 9.70559 34.1575 9.69833 33.849C9.69108 33.5404 9.75191 33.2341 9.8765 32.9517C10.0008 32.6698 10.1856 32.4185 10.4179 32.216C10.6502 32.0135 10.9242 31.8647 11.2205 31.78L40.6205 23.38C40.8091 23.3265 41.0042 23.2994 41.2001 23.3ZM42.3888 32.477L40.0996 27.8991L14.8073 35.123L17.0963 39.7011L42.3888 32.477Z" fill="white"/>
<path d="M47.5 46.4001H43.3V36.5849L16.5755 44.2204L15.4204 40.1799L47.4959 31.0154L47.5 46.4001Z" fill="white"/>
<path d="M28.6002 50.0665C28.3217 50.0665 28.0547 49.9561 27.8578 49.7592C27.6609 49.5623 27.5502 49.295 27.5502 49.0165C27.5555 48.8717 27.5884 48.7293 27.6468 48.5966C27.7518 48.3572 28.0332 47.6936 28.4028 46.715C28.5016 46.4552 28.6996 46.245 28.9532 46.1308C29.2067 46.0167 29.4952 46.0077 29.7553 46.106C30.0152 46.2048 30.2251 46.4028 30.3392 46.6563C30.4534 46.9099 30.4623 47.1983 30.3641 47.4585C29.9819 48.4707 29.6838 49.1678 29.5704 49.4282C29.4895 49.6183 29.3541 49.7802 29.1816 49.8938C29.009 50.0073 28.8068 50.0674 28.6002 50.0665ZM30.7379 44.1446C30.6353 44.1441 30.5336 44.1286 30.4356 44.0985C30.3034 44.0586 30.1805 43.9929 30.0737 43.9055C29.9668 43.818 29.8784 43.7103 29.8132 43.5886C29.7481 43.4669 29.7076 43.3335 29.694 43.1962C29.6805 43.0588 29.6941 42.9201 29.7342 42.7881C29.9358 42.1203 30.1248 41.4567 30.2928 40.8057C30.3275 40.6722 30.3881 40.5469 30.4712 40.4368C30.5544 40.3268 30.6586 40.2342 30.7776 40.1643C30.8965 40.0945 31.028 40.0487 31.1647 40.0298C31.3013 40.0108 31.4403 40.0191 31.5738 40.0538C31.7073 40.0886 31.8326 40.1491 31.9427 40.2323C32.0527 40.3154 32.1454 40.4196 32.2152 40.5386C32.285 40.6576 32.3305 40.7891 32.3495 40.9257C32.3685 41.0623 32.3605 41.2013 32.3257 41.3348C32.1493 42.011 31.9561 42.704 31.7461 43.3928C31.6817 43.6101 31.5486 43.8007 31.3669 43.9362C31.1852 44.0717 30.9645 44.1449 30.7379 44.1446ZM32.1911 38.0169C32.1338 38.0216 32.0764 38.0216 32.0191 38.0169C31.7446 37.9716 31.4992 37.8192 31.3369 37.5932C31.1747 37.3672 31.1088 37.0859 31.1536 36.8113C31.267 36.1225 31.3595 35.4423 31.4267 34.7913C31.4563 34.515 31.5939 34.2615 31.8094 34.0861C32.0249 33.9107 32.3011 33.8275 32.5777 33.8546C32.8544 33.8832 33.1083 34.0205 33.2839 34.2363C33.4595 34.4521 33.5423 34.7286 33.5141 35.0053C33.4427 35.6941 33.3462 36.4166 33.2244 37.1474C33.1783 37.3883 33.0494 37.6053 32.8599 37.7611C32.6704 37.9168 32.4323 38.0014 32.187 38L32.1911 38.0169ZM32.5777 31.742C32.3112 31.7415 32.0548 31.6397 31.8607 31.4572C31.6665 31.2747 31.5488 31.0251 31.5318 30.7592C31.4909 30.1038 31.4096 29.4514 31.2882 28.8061C31.2621 28.6701 31.2632 28.5302 31.2913 28.3946C31.3194 28.259 31.374 28.1304 31.452 28.016C31.5301 27.9016 31.63 27.804 31.7461 27.7284C31.8621 27.6528 31.9921 27.6008 32.1283 27.5756C32.2643 27.5495 32.4041 27.5506 32.5397 27.5787C32.6753 27.6068 32.804 27.6613 32.9183 27.7394C33.0327 27.8175 33.1304 27.9174 33.206 28.0334C33.2816 28.1495 33.3335 28.2795 33.3587 28.4157C33.4968 29.147 33.5893 29.8862 33.6359 30.629C33.645 30.7666 33.627 30.9046 33.5828 31.0353C33.5386 31.1659 33.4691 31.2866 33.3782 31.3903C33.2874 31.4941 33.1768 31.5789 33.0532 31.64C32.9295 31.7011 32.795 31.7371 32.6574 31.7461L32.5777 31.742ZM30.8345 25.7571C30.6581 25.7575 30.4846 25.7133 30.3297 25.6289C30.1749 25.5445 30.0436 25.4223 29.9483 25.2739C29.6184 24.7588 29.2247 24.2875 28.7765 23.8711C28.5723 23.6822 28.4515 23.4201 28.4405 23.1421C28.4294 22.8641 28.5292 22.5932 28.7178 22.3887C28.9073 22.1851 29.1697 22.0649 29.4477 22.0547C29.7256 22.0444 29.9963 22.1449 30.2003 22.3341C30.7787 22.8712 31.287 23.4793 31.7125 24.1441C31.8625 24.3782 31.9133 24.6621 31.8542 24.9337C31.7952 25.2053 31.631 25.4426 31.3974 25.5933C31.2293 25.7004 31.0339 25.7572 30.8345 25.7571ZM11.2836 22.8968C11.0165 22.8962 10.7594 22.7938 10.5651 22.6104C10.3708 22.427 10.2538 22.1765 10.2377 21.9098C10.2217 21.6319 10.3167 21.3589 10.5018 21.151C10.6868 20.9431 10.9468 20.8173 11.2247 20.8011C11.8673 20.7633 12.5435 20.696 13.2365 20.6078C13.3733 20.5895 13.5125 20.5982 13.6459 20.6337C13.7793 20.6692 13.9044 20.7308 14.014 20.8147C14.1236 20.8986 14.2156 21.0031 14.2847 21.1226C14.3538 21.242 14.3986 21.3739 14.4167 21.5107C14.435 21.6475 14.4263 21.7867 14.3908 21.9201C14.3553 22.0534 14.2937 22.1786 14.2098 22.2882C14.126 22.3978 14.0214 22.4898 13.902 22.5589C13.7825 22.628 13.6507 22.6728 13.5139 22.6909C12.7705 22.7875 12.0397 22.8591 11.3467 22.9011L11.2836 22.8968ZM7.08363 22.7163C7.02493 22.7212 6.96596 22.7212 6.90726 22.7163C6.14966 22.5913 5.40573 22.3944 4.6855 22.1282C4.42484 22.0302 4.21371 21.8325 4.09872 21.5789C3.98372 21.3252 3.97403 21.0364 4.07206 20.7757C4.17008 20.5151 4.36778 20.3042 4.62141 20.1892C4.87503 20.0742 5.16389 20.0645 5.42455 20.1625C6.01965 20.3814 6.63427 20.5431 7.26 20.6455C7.53156 20.6966 7.77207 20.8528 7.92932 21.08C8.08657 21.3072 8.14792 21.5872 8.10005 21.8593C8.05696 22.0955 7.93407 22.3099 7.75218 22.4666C7.57029 22.6233 7.34023 22.7128 7.10029 22.7204L7.08363 22.7163ZM25.8283 22.1449C25.7288 22.1449 25.6298 22.131 25.5342 22.1031C24.9154 21.9266 24.2833 21.8001 23.6442 21.725C23.5071 21.7084 23.3746 21.6647 23.2543 21.5968C23.134 21.5289 23.0281 21.438 22.9431 21.3292C22.858 21.2203 22.7953 21.0958 22.7585 20.9626C22.7217 20.8295 22.7115 20.6903 22.7285 20.5532C22.7632 20.2767 22.906 20.0252 23.1256 19.8537C23.3452 19.6821 23.6236 19.6043 23.9003 19.6376C24.6518 19.7274 25.3947 19.8777 26.1221 20.0869C26.3894 20.1649 26.6149 20.346 26.7488 20.5901C26.8827 20.8343 26.9142 21.1216 26.8362 21.3889C26.7735 21.6043 26.6432 21.794 26.4648 21.9301C26.2864 22.0661 26.0692 22.1413 25.8449 22.1449H25.8283ZM17.4954 21.9685C17.2467 21.9677 17.0061 21.8788 16.8169 21.7173C16.6277 21.5558 16.5019 21.3323 16.4621 21.0867C16.4399 20.9504 16.4448 20.8111 16.4765 20.6768C16.5082 20.5424 16.5662 20.4155 16.6469 20.3035C16.7277 20.1916 16.8296 20.0966 16.9471 20.0241C17.0646 19.9516 17.1954 19.903 17.3316 19.8811C18.0708 19.7593 18.7974 19.6711 19.4862 19.6081C19.7636 19.5836 20.0393 19.6705 20.2527 19.8493C20.4662 20.0281 20.5999 20.2843 20.6244 20.5617C20.6489 20.839 20.5622 21.1147 20.3835 21.3282C20.2047 21.5416 19.9484 21.6753 19.6711 21.6999C19.0285 21.7587 18.3522 21.8426 17.6634 21.956C17.6134 21.9652 17.5628 21.9709 17.5121 21.9729L17.4954 21.9685ZM1.80005 19.6501C1.61955 19.6504 1.44197 19.6043 1.28453 19.516C1.12709 19.4278 0.995152 19.3003 0.901292 19.1461C0.468163 18.4256 0.182576 17.6261 0.0612406 16.7941C0.0190204 16.519 0.0876192 16.2385 0.25222 16.0141C0.41682 15.7896 0.663887 15.6397 0.938975 15.5973C1.21409 15.555 1.49484 15.6236 1.7193 15.7882C1.94375 15.9528 2.09344 16.1999 2.13586 16.475C2.2173 17.0321 2.40874 17.5674 2.6988 18.05C2.84272 18.2879 2.88645 18.5731 2.82031 18.8431C2.75417 19.1132 2.58363 19.3462 2.34607 19.4907C2.1876 19.5918 2.00463 19.6484 1.81671 19.6545L1.80005 19.6501ZM53.1701 18.2179C52.9125 18.2179 52.6522 18.2179 52.389 18.2179C52.1111 18.2038 51.8501 18.0799 51.6635 17.8736C51.4769 17.6673 51.3799 17.3955 51.3936 17.1177C51.4088 16.8402 51.5328 16.5799 51.7389 16.3935C51.9449 16.2071 52.2165 16.1097 52.4941 16.1223C53.1383 16.1575 53.7841 16.1421 54.4259 16.0761C54.7025 16.0478 54.9791 16.1299 55.1955 16.3045C55.4118 16.4791 55.5503 16.7321 55.581 17.0084C55.6104 17.2852 55.5287 17.5622 55.3539 17.7788C55.1791 17.9954 54.9254 18.1337 54.6487 18.1633C54.1628 18.2085 53.6749 18.2283 53.187 18.2223L53.1701 18.2179ZM48.3023 17.525C48.2144 17.5247 48.1271 17.5134 48.0421 17.4914C47.3827 17.3234 46.6853 17.1218 45.9629 16.8908C45.6978 16.806 45.4775 16.6195 45.3499 16.3722C45.2223 16.1249 45.198 15.837 45.2825 15.5719C45.3673 15.3069 45.5538 15.0865 45.8011 14.9589C46.0484 14.8314 46.3363 14.8071 46.6014 14.8915C47.2818 15.1099 47.9412 15.3116 48.5586 15.4586C48.8244 15.528 49.0523 15.6988 49.1936 15.9344C49.3349 16.1699 49.3784 16.4513 49.3146 16.7185C49.2635 16.9421 49.1404 17.1428 48.9644 17.2899C48.7885 17.4371 48.5693 17.5227 48.3402 17.5334L48.3023 17.525ZM58.5211 16.9077C58.3329 16.9075 58.1481 16.8566 57.9863 16.7606C57.8245 16.6645 57.6916 16.5268 57.6013 16.3617C57.4683 16.1172 57.4377 15.8296 57.5164 15.5626C57.5952 15.2957 57.7767 15.0708 58.0212 14.9377C58.5786 14.6287 59.1071 14.2705 59.6003 13.8669C59.7072 13.7797 59.8305 13.7143 59.9628 13.6746C60.095 13.635 60.2336 13.6219 60.3709 13.6359C60.5082 13.65 60.6414 13.6909 60.7628 13.7564C60.8843 13.822 60.9916 13.9108 61.0786 14.0179C61.1659 14.1249 61.2313 14.2482 61.2709 14.3804C61.3105 14.5126 61.3237 14.6512 61.3096 14.7885C61.2956 14.9258 61.2547 15.059 61.1891 15.1804C61.1236 15.3019 61.0348 15.4094 60.9277 15.4965C60.3359 15.9794 59.7018 16.4081 59.0332 16.7775C58.8822 16.8642 58.7119 16.9117 58.5377 16.9159L58.5211 16.9077ZM42.3425 15.4922C42.2072 15.4928 42.0731 15.4671 41.9477 15.4165C41.3303 15.1645 40.6877 14.8873 39.9905 14.5765C39.8638 14.5217 39.7494 14.4426 39.6534 14.3435C39.5574 14.2443 39.4818 14.1273 39.4311 13.9989C39.3804 13.8706 39.3555 13.7334 39.3578 13.5954C39.3601 13.4575 39.3895 13.3213 39.4444 13.1948C39.4993 13.0681 39.5786 12.9537 39.6777 12.8577C39.7768 12.7617 39.8939 12.6861 40.0222 12.6354C40.1506 12.5847 40.2878 12.5598 40.4257 12.5621C40.5637 12.5644 40.6998 12.5938 40.8264 12.6487C41.4942 12.9385 42.1368 13.2075 42.7416 13.4511C42.8697 13.5028 42.9864 13.5791 43.0848 13.6759C43.1833 13.7728 43.2617 13.8881 43.3155 14.0153C43.3694 14.1425 43.3976 14.2792 43.3986 14.4173C43.3996 14.5554 43.3732 14.6923 43.3212 14.8203C43.2473 15.0169 43.1161 15.1868 42.9446 15.3081C42.7732 15.4294 42.5693 15.4964 42.3594 15.5006L42.3425 15.4922ZM1.71186 13.5811C1.56756 13.5825 1.42438 13.554 1.29171 13.4973C1.0358 13.3889 0.833479 13.1833 0.72877 12.9259C0.624061 12.6684 0.625521 12.38 0.733128 12.1237C1.03191 11.42 1.39461 10.7453 1.81671 10.1078C1.97005 9.87579 2.20923 9.7141 2.48167 9.65819C2.75412 9.60228 3.03761 9.6568 3.26994 9.80969C3.50198 9.96304 3.66367 10.202 3.71958 10.4744C3.77548 10.7468 3.72097 11.0303 3.56808 11.2627C3.21627 11.7938 2.91414 12.3563 2.66522 12.9428C2.58722 13.1305 2.45639 13.2914 2.28865 13.4063C2.1209 13.5211 1.92329 13.5848 1.72007 13.5895L1.71186 13.5811ZM36.5718 12.9512C36.4195 12.9515 36.2691 12.9185 36.1309 12.8546L34.2239 11.9558C33.9729 11.8359 33.7798 11.6213 33.6869 11.3591C33.594 11.0968 33.6089 10.8084 33.7284 10.5572C33.8483 10.3062 34.063 10.1131 34.3252 10.0202C34.5874 9.92723 34.8758 9.94215 35.127 10.0617L37.0171 10.952C37.2693 11.0696 37.4642 11.2827 37.5595 11.5441C37.6548 11.8056 37.6425 12.0942 37.5252 12.3465C37.4422 12.5279 37.3093 12.6819 37.1419 12.7905C36.9746 12.8991 36.7798 12.9578 36.5803 12.9597L36.5718 12.9512ZM30.8935 10.2296C30.7349 10.2298 30.5783 10.1937 30.4356 10.1245L28.5456 9.20061C28.2957 9.07845 28.1045 8.86222 28.0139 8.59922C27.9233 8.33621 27.9409 8.04799 28.0626 7.79788C28.1848 7.54798 28.401 7.35677 28.664 7.26621C28.927 7.17566 29.2152 7.19294 29.4653 7.31466L31.3513 8.23469C31.6012 8.35685 31.7924 8.57308 31.883 8.83608C31.9735 9.09909 31.956 9.38731 31.8342 9.63743C31.7513 9.8127 31.6213 9.96157 31.459 10.0676C31.2966 10.1736 31.1083 10.2326 30.9145 10.238L30.8935 10.2296ZM5.51273 8.62947C5.35774 8.62981 5.20457 8.59559 5.06438 8.52949C4.92419 8.46339 4.80051 8.36705 4.70216 8.24725C4.5245 8.03282 4.4393 7.75649 4.46529 7.47924C4.49129 7.20198 4.62642 6.94657 4.84084 6.7689C5.41719 6.2921 6.02468 5.85427 6.65937 5.45845C6.8956 5.31171 7.18037 5.26472 7.45123 5.32771C7.7221 5.3907 7.95691 5.55835 8.10415 5.79426C8.25089 6.03049 8.29788 6.31551 8.23489 6.58638C8.17189 6.85724 8.00399 7.09206 7.76808 7.23929C7.2141 7.58443 6.68377 7.96596 6.18052 8.38158C6.00105 8.53981 5.77279 8.63177 5.53375 8.64203L5.51273 8.62947ZM25.2528 7.4577C25.0924 7.4572 24.9344 7.41983 24.7908 7.3485L23.9508 6.92835C23.619 6.76875 23.2831 6.61331 22.9513 6.47051C22.6958 6.36056 22.4943 6.15379 22.3912 5.89552C22.288 5.63725 22.2915 5.34857 22.4009 5.0929C22.5109 4.83745 22.7176 4.63618 22.9759 4.53303C23.2342 4.42988 23.5229 4.43335 23.7785 4.54277C24.1439 4.69817 24.5094 4.86625 24.8706 5.04265L25.7106 5.46255C25.9605 5.58471 26.1517 5.80119 26.2423 6.0642C26.3328 6.3272 26.3153 6.61517 26.1936 6.86528C26.1088 7.04643 25.9739 7.19957 25.805 7.30671C25.6361 7.41386 25.4402 7.47073 25.2402 7.47026L25.2528 7.4577ZM11.0483 5.6684C10.8234 5.6683 10.6045 5.59612 10.4238 5.46229C10.2431 5.32846 10.1101 5.14005 10.0444 4.92499C9.96324 4.65876 9.99113 4.37116 10.1219 4.12544C10.2526 3.87972 10.4755 3.69595 10.7417 3.61454C11.4552 3.3973 12.1819 3.22611 12.9173 3.1021C13.1888 3.05544 13.4678 3.11749 13.6941 3.27462C13.9203 3.43176 14.0759 3.67145 14.127 3.94215C14.1737 4.21366 14.1117 4.49261 13.9545 4.71888C13.7974 4.94516 13.5577 5.10074 13.287 5.15186C12.6409 5.26184 12.0025 5.41323 11.3759 5.60533C11.2703 5.6408 11.1597 5.65923 11.0483 5.65994V5.6684ZM19.356 5.3031C19.2876 5.30976 19.2186 5.30976 19.1502 5.3031C18.5036 5.17312 17.8501 5.0804 17.193 5.02573C17.0553 5.01461 16.9211 4.9765 16.7982 4.91345C16.6753 4.8504 16.5661 4.76373 16.4767 4.65839C16.3874 4.55304 16.3197 4.43104 16.2775 4.2995C16.2354 4.16796 16.2196 4.02956 16.2311 3.89191C16.2417 3.75403 16.2795 3.61953 16.3424 3.49636C16.4053 3.37319 16.492 3.26358 16.5975 3.17413C16.7029 3.08469 16.8251 3.01713 16.9569 2.97521C17.0886 2.93328 17.2275 2.91802 17.3652 2.93009C18.1042 2.99098 18.839 3.09465 19.566 3.24078C19.7026 3.26596 19.8329 3.31795 19.9492 3.39382C20.0656 3.4697 20.1656 3.56788 20.2437 3.68273C20.3219 3.79758 20.3764 3.92681 20.4042 4.06289C20.4321 4.19898 20.4328 4.33931 20.406 4.47561C20.3571 4.71563 20.2256 4.93104 20.0346 5.08444C19.8436 5.23784 19.605 5.31962 19.3601 5.31566L19.356 5.3031Z" fill="#B2B2B2"/>
<path d="M65.0354 8.9823C65.5299 8.9823 66.0132 9.12892 66.4243 9.40363C66.8354 9.67833 67.1559 10.0688 67.3451 10.5256C67.5343 10.9824 67.5838 11.4851 67.4874 11.97C67.3909 12.455 67.1528 12.9004 66.8032 13.2501C66.4535 13.5997 66.0081 13.8378 65.5231 13.9343C65.0382 14.0307 64.5355 13.9812 64.0787 13.792C63.6219 13.6028 63.2314 13.2823 62.9567 12.8712C62.682 12.4601 62.5354 11.9768 62.5354 11.4823C62.5354 10.8193 62.7988 10.1834 63.2676 9.71453C63.7365 9.24569 64.3724 8.9823 65.0354 8.9823Z" fill="#F86744"/>
<path d="M59.5336 2.61664C62.0361 1.17226 64.8525 1.35986 65.8133 3.02342C66.774 4.68698 64.7693 11.6824 64.7693 11.6824C64.7693 11.6824 57.7095 9.92479 56.7461 8.2567C55.7827 6.5886 57.031 4.06102 59.5336 2.61664Z" fill="#F86744"/>
<path d="M70.0022 20.7491C67.4998 22.1938 64.6838 22.0064 63.7232 20.3427C62.7627 18.679 64.7677 11.6827 64.7677 11.6827C64.7677 11.6827 71.8265 13.44 72.7897 15.1082C73.7528 16.7764 72.5045 19.3044 70.0022 20.7491Z" fill="#F86744"/>
<path d="M28.6 77.8958C28.1456 77.8958 27.7036 77.7485 27.3401 77.4759C27.0792 77.2803 26.8675 77.0266 26.7217 76.735C26.5759 76.4434 26.5 76.1218 26.5 75.7958V50.5958C26.5002 50.2381 26.5916 49.8864 26.7658 49.574C26.94 49.2616 27.1912 48.999 27.4954 48.8108C27.8001 48.6222 28.1481 48.5148 28.5062 48.4986C28.8642 48.4824 29.2203 48.5581 29.5408 48.7186L37.2099 52.553L57.4245 46.778C57.7369 46.6893 58.0656 46.6742 58.3848 46.7339C58.704 46.7937 59.0052 46.9268 59.2643 47.1225C59.5251 47.3181 59.7368 47.5718 59.8826 47.8634C60.0284 48.155 60.1041 48.4764 60.1041 48.8024V67.4042C60.1042 67.861 59.9555 68.3053 59.6804 68.6698C59.4052 69.0344 59.0188 69.2994 58.5796 69.4245L29.1796 77.8245C28.9907 77.8752 28.7956 77.8991 28.6 77.8958ZM30.7 53.9937V73.0113L55.9 65.8123V51.5786L37.5755 56.812C37.07 56.9558 36.5289 56.9048 36.0592 56.6692L30.7 53.9937Z" fill="white"/>
<path d="M28.6 77.9C28.1456 77.9 27.7035 77.7527 27.34 77.4801L10.54 64.8801C10.2792 64.6845 10.0675 64.4309 9.92169 64.1393C9.77589 63.8477 9.69995 63.526 9.69995 63.2V47.4541C9.69996 47.0644 9.80849 46.6826 10.0132 46.3511C10.2179 46.0195 10.5108 45.7515 10.8592 45.5769C11.2081 45.402 11.5989 45.3277 11.9876 45.3626C12.3763 45.3974 12.7476 45.5401 13.0599 45.7743L16.7013 48.5041H28.6C29.1569 48.5041 29.6911 48.7255 30.085 49.1193C30.4788 49.5132 30.7 50.0472 30.7 50.6041V75.8041C30.7003 76.1965 30.5907 76.5813 30.3836 76.9146C30.1765 77.2479 29.8802 77.5166 29.5282 77.6901C29.2389 77.8302 28.9213 77.902 28.6 77.9ZM13.9 62.1541L26.5 71.6041V52.7041H16C15.5456 52.7041 15.1035 52.5568 14.74 52.2842L13.9 51.6541V62.1541Z" fill="white"/>
</svg>
