<svg width="30" height="19" viewBox="0 0 30 19" fill="none" xmlns="http://www.w3.org/2000/svg">
<path d="M15.0071 19C23.9105 19 30 11.772 30 9.5C30 7.21376 23.9105 0 15.0071 0C6.22959 0 0 7.21376 0 9.5C0 11.772 6.22959 19 15.0071 19ZM15.0071 15.7339C11.6052 15.7339 8.84743 12.9507 8.84743 9.5C8.84743 6.04934 11.6052 3.26606 15.0071 3.26606C18.4088 3.26606 21.1527 6.04934 21.1527 9.5C21.1527 12.9507 18.4088 15.7339 15.0071 15.7339ZM15.0071 11.8573C16.295 11.8573 17.3308 10.8064 17.3308 9.5C17.3308 8.19358 16.295 7.14275 15.0071 7.14275C13.7191 7.14275 12.6832 8.19358 12.6832 9.5C12.6832 10.8064 13.7191 11.8573 15.0071 11.8573Z" fill="white"/>
</svg>
