<svg width="30" height="21" viewBox="0 0 30 21" fill="none" xmlns="http://www.w3.org/2000/svg">
<path d="M9.40712 7.76876C9.04583 8.54328 8.84743 9.40839 8.84743 10.3208C8.84743 13.7227 11.6052 16.4664 15.0071 16.4664C15.9181 16.4664 16.7819 16.2696 17.5556 15.9109L20.4173 18.7705C18.7794 19.343 16.961 19.6862 15.0071 19.6862C6.22959 19.6862 0 12.5607 0 10.3208C0 9.0216 2.07004 6.10821 5.51314 3.87776L9.40712 7.76876ZM30 10.3208C30 11.5755 28.0891 14.3633 24.8415 16.5722L20.754 12.4879C21.0141 11.8167 21.1527 11.0854 21.1527 10.3208C21.1527 6.91905 18.4088 4.17523 15.0071 4.17523C14.2413 4.17523 13.5082 4.31425 12.8349 4.57493L10.0054 1.74757C11.5416 1.24969 13.2216 0.955444 15.0071 0.955444C23.9105 0.955444 30 8.06699 30 10.3208ZM15.7547 14.1114C15.5133 14.16 15.2631 14.1845 15.0071 14.1845C12.8652 14.1845 11.1433 12.4627 11.1433 10.3208C11.1433 10.0657 11.1677 9.81661 11.2159 9.57618L15.7547 14.1114ZM18.8708 10.3208L18.8572 10.5925L14.7323 6.47085C14.8223 6.46031 14.9142 6.45709 15.0071 6.45709C17.1489 6.45709 18.8708 8.17897 18.8708 10.3208Z" fill="white"/>
<path d="M23.4204 19.8262C23.7984 20.2043 24.4003 20.2322 24.7922 19.8262C25.1843 19.4062 25.1562 18.8463 24.7922 18.4683L6.57945 0.283484C6.20148 -0.0944946 5.58552 -0.0944946 5.20755 0.283484C4.84358 0.647451 4.84358 1.27742 5.20755 1.64139L23.4204 19.8262Z" fill="white"/>
</svg>
