<svg width="22" height="20" viewBox="0 0 22 20" fill="none" xmlns="http://www.w3.org/2000/svg">
<path d="M7 10H21M21 10L17 6M21 10L17 14" stroke="white" stroke-width="2" stroke-linecap="round" stroke-linejoin="round"/>
<path fill-rule="evenodd" clip-rule="evenodd" d="M2 16L2 4C2 2.89543 2.89543 2 4 2L10 2C11.1046 2 12 2.89543 12 4L12 16C12 17.1046 11.1046 18 10 18H4C2.89543 18 2 17.1046 2 16ZM4 20C1.79086 20 0 18.2091 0 16V4C0 1.79086 1.79086 0 4 0H10C12.2091 0 14 1.79086 14 4V6.00337C13.9982 6.55411 13.5512 7 13 7C12.4477 7 12 6.55229 12 6V14C12 13.4477 12.4477 13 13 13C13.5512 13 13.9983 13.446 14 13.9968V16C14 18.2091 12.2091 20 10 20H4Z" fill="white"/>
</svg>
