<svg width="12" height="13" viewBox="0 0 12 13" fill="none" xmlns="http://www.w3.org/2000/svg">
<path d="M2.40544 10.9997L1.69916 11.5986C1.49801 11.7626 1.24923 11.7838 1.08513 11.5879C0.926331 11.3921 0.984562 11.1381 1.17512 10.9792L1.95422 10.3251C2.08426 10.5682 2.23503 10.7939 2.40544 10.9997ZM10.8196 10.9792C11.0154 11.1381 11.0737 11.3921 10.9148 11.5879C10.7508 11.7838 10.4967 11.7626 10.3008 11.5986L9.59292 11.0016C9.76388 10.7954 9.91505 10.5694 10.0454 10.3258L10.8196 10.9792ZM1.3498 7.76621L1.35335 7.86302L0.439347 7.86676C0.169387 7.86676 0 7.70268 0 7.45914C0 7.22097 0.169387 7.0569 0.434053 7.0569L1.40044 7.05294C1.367 7.29903 1.3498 7.53996 1.3498 7.76621ZM11.5659 7.0569C11.8253 7.0569 12 7.22097 12 7.45914C12 7.70268 11.8253 7.86676 11.5606 7.86676L10.6466 7.86302C10.6499 7.83179 10.6502 7.79905 10.6502 7.76621C10.6502 7.53996 10.633 7.29903 10.5995 7.05294L11.5659 7.0569ZM1.71504 3.71678L2.52985 4.40893C2.50775 4.42719 2.48491 4.4471 2.4614 4.46844C2.30451 4.61667 2.16031 4.81306 2.03206 5.04295L1.19629 4.3361C1.00573 4.1773 0.942213 3.91793 1.10101 3.72737C1.25981 3.53151 1.51918 3.55269 1.71504 3.71678ZM10.899 3.72737C11.0578 3.91793 10.9943 4.1773 10.8037 4.3361L9.9679 5.04295C9.83966 4.81306 9.69547 4.61667 9.53861 4.46844C9.51508 4.4471 9.49221 4.42719 9.47015 4.40893L10.2849 3.71678C10.4808 3.55269 10.7402 3.53151 10.899 3.72737Z" fill="white"/>
<path d="M9.5386 4.46843C10.2108 5.10362 10.6502 6.62282 10.6502 7.7662C10.6502 10.3229 9.16276 12.1808 6.88663 12.4719C6.52667 12.5143 6.34671 12.3872 6.34671 12.112V6.08821C6.34671 5.89763 6.18789 5.74413 5.99737 5.74413C5.80679 5.74413 5.65328 5.89763 5.65328 6.08821V12.112C5.65328 12.3872 5.47332 12.5143 5.11335 12.4719C2.83722 12.1808 1.34979 10.3229 1.34979 7.7662C1.34979 6.62282 1.78914 5.10362 2.4614 4.46843C2.80546 4.15612 3.00661 4.15083 3.20776 4.23552C3.99117 4.58488 4.98102 4.8072 5.99737 4.8072C7.01894 4.8072 8.00881 4.58488 8.79222 4.23552C8.99337 4.15083 9.19452 4.15612 9.5386 4.46843ZM3.46184 10.3917C3.46184 10.7146 3.72121 10.9739 4.0441 10.9739C4.37229 10.9739 4.63166 10.7146 4.63166 10.3917C4.63166 10.0688 4.37229 9.80941 4.0441 9.80941C3.72121 9.80941 3.46184 10.0688 3.46184 10.3917ZM7.36834 10.3917C7.36834 10.7146 7.62771 10.9739 7.95586 10.9739C8.27875 10.9739 8.53817 10.7146 8.53817 10.3917C8.53817 10.0688 8.27875 9.80941 7.95586 9.80941C7.62771 9.80941 7.36834 10.0688 7.36834 10.3917ZM2.57785 8.23728C2.57785 8.68192 2.9325 9.03657 3.37185 9.03657C3.8059 9.03657 4.16585 8.68192 4.16585 8.23728C4.16585 7.80322 3.8059 7.44856 3.37185 7.44856C2.9325 7.44856 2.57785 7.80322 2.57785 8.23728ZM7.83411 8.23728C7.83411 8.68192 8.19408 9.03657 8.62815 9.03657C9.06747 9.03657 9.42212 8.68192 9.42212 8.23728C9.42212 7.80322 9.06747 7.44856 8.62815 7.44856C8.19408 7.44856 7.83411 7.80322 7.83411 8.23728ZM3.26069 6.07759C3.26069 6.44281 3.56241 6.76045 3.93823 6.76045C4.31406 6.76045 4.62107 6.44813 4.62107 6.07759C4.62107 5.70179 4.31406 5.39476 3.93823 5.39476C3.56241 5.39476 3.26069 5.70179 3.26069 6.07759ZM7.37891 6.07759C7.37891 6.44813 7.68592 6.76045 8.06172 6.76045C8.43756 6.76045 8.73926 6.44281 8.73926 6.07759C8.73926 5.70179 8.43756 5.39476 8.06172 5.39476C7.68592 5.39476 7.37891 5.70179 7.37891 6.07759Z" fill="white"/>
<path d="M3.18652 3.09746C3.18652 3.3833 3.29768 3.60562 3.63645 3.75913C4.21872 4.02908 5.09742 4.19318 5.99731 4.19318C6.90245 4.19318 7.78115 4.02908 8.36341 3.75913C8.70218 3.60562 8.81335 3.3833 8.81335 3.09746C8.81335 1.93292 7.69643 1.00659 5.99731 1.00659C4.30341 1.00659 3.18652 1.93292 3.18652 3.09746ZM3.66822 0.763096L4.02816 0.895429C4.25577 0.974832 4.34576 1.09658 4.30341 1.28184L4.2399 1.5518L5.01801 1.54651L5.05507 1.27655C5.11329 0.763096 4.87509 0.381977 4.35105 0.196711L3.93288 0.0273239C3.40884 -0.15265 3.16006 0.609591 3.66822 0.763096ZM8.33164 0.763096C8.8398 0.609591 8.59101 -0.15265 8.06697 0.0273239L7.64879 0.196711C7.12474 0.381977 6.88657 0.763096 6.94479 1.27655L6.98186 1.54651L7.75996 1.5518L7.69643 1.28184C7.6541 1.09658 7.74407 0.974832 7.97168 0.895429L8.33164 0.763096Z" fill="white"/>
</svg>
