<svg width="30" height="24" viewBox="0 0 30 24" fill="none" xmlns="http://www.w3.org/2000/svg">
<path d="M22.4432 4.43163H15.6738C12.0996 4.43163 10.0488 6.55077 10.0488 10.0469V15.3301C10.0488 16.4486 10.2588 17.4262 10.6636 18.2366L8.38867 20.2617C7.80273 20.7793 7.4707 21.0332 6.98242 21.0332C6.30859 21.0332 5.91797 20.5547 5.91797 19.8027V17.2539H5.44922C2.54883 17.2539 0.976562 15.6523 0.976562 12.791V5.30077C0.976562 2.43944 2.54883 0.82811 5.44922 0.82811H18.0273C20.6272 0.82811 22.1514 2.11412 22.4432 4.43163Z" fill="white"/>
<path d="M16.5625 11.6191C16.1133 11.6191 15.8008 11.2871 15.8008 10.8574C15.8008 10.418 16.1133 10.0957 16.5625 10.0957H23.9062C24.3457 10.0957 24.6777 10.418 24.6777 10.8574C24.6777 11.2871 24.3457 11.6191 23.9062 11.6191H16.5625ZM16.5625 15.3789C16.1133 15.3789 15.8008 15.0762 15.8008 14.6367C15.8008 14.207 16.1133 13.8555 16.5625 13.8555H21.9336C22.3633 13.8555 22.7148 14.207 22.7148 14.6367C22.7148 15.0762 22.3633 15.3789 21.9336 15.3789H16.5625ZM15.6738 19.6074H18.8281L22.0898 22.4004C22.6855 22.9082 23.0078 23.1719 23.4863 23.1719C24.1602 23.1719 24.541 22.6934 24.541 21.9512V19.6074H24.7363C27.5488 19.6074 29.0234 18.0937 29.0234 15.3301V10.0469C29.0234 7.27342 27.5488 5.75975 24.7363 5.75975H15.6738C12.8613 5.75975 11.3867 7.27342 11.3867 10.0469V15.3301C11.3867 18.1035 12.8613 19.6074 15.6738 19.6074Z" fill="white"/>
</svg>
