<svg width="20" height="20" viewBox="0 0 20 20" fill="none" xmlns="http://www.w3.org/2000/svg">
<path d="M10.1179 6.12245L8.86361 7.39281C10.1084 7.49632 10.9195 7.86332 11.5324 8.47498C13.1828 10.1218 13.1734 12.4554 11.5419 14.0834L8.4581 17.1511C6.81717 18.7885 4.49723 18.7979 2.84687 17.1605C1.19652 15.5043 1.20594 13.1894 2.84687 11.5521L4.69527 9.70774C4.43121 9.11486 4.36521 8.40911 4.46894 7.79745L1.69633 10.5546C-0.557584 12.813 -0.576445 16.0124 1.70577 18.2897C3.99741 20.5764 7.20382 20.5575 9.45774 18.3085L12.683 15.0808C14.9464 12.8225 14.9652 9.62301 12.6736 7.34576C12.0794 6.75293 11.325 6.32948 10.1179 6.12245ZM9.88216 13.8763L11.1364 12.606C9.89153 12.5119 9.08052 12.1355 8.46752 11.5238C6.81717 9.87704 6.82659 7.54338 8.4581 5.91543L11.5324 2.84773C13.1828 1.21038 15.5028 1.20097 17.1532 2.84773C18.8035 4.4945 18.7846 6.8188 17.1532 8.44675L15.3047 10.2911C15.5688 10.8933 15.6253 11.5897 15.5311 12.2014L18.3037 9.44422C20.5575 7.1858 20.5765 3.99577 18.2942 1.70911C16.0025 -0.577543 12.7961 -0.558723 10.5328 1.6997L7.31699 4.91796C5.05364 7.17638 5.03477 10.3758 7.32642 12.6531C7.92055 13.2459 8.675 13.6694 9.88216 13.8763Z" fill="white"/>
</svg>
