<svg width="30" height="28" viewBox="0 0 30 28" fill="none" xmlns="http://www.w3.org/2000/svg">
<path fill-rule="evenodd" clip-rule="evenodd" d="M6.84018 27.3913C5.04416 27.3913 3.97419 26.3596 3.97419 24.589V11.5483L2.01257 13.1963C1.74507 13.4129 1.4521 13.604 1.09545 13.604C0.407609 13.604 0 13.1071 0 12.5849C0 12.292 0.127378 11.9862 0.407609 11.757L13.6804 0.611413C14.1644 0.203804 14.6867 0 15.209 0C15.7311 0 16.2533 0.203804 16.7374 0.611413L29.5924 11.757C29.8853 11.9862 30 12.292 30 12.5849C30 13.1071 29.5924 13.604 28.9046 13.604C28.5479 13.604 28.2549 13.4129 28.0002 13.1963L26.4436 11.8456V24.589C26.4436 26.3596 25.3864 27.3913 23.5903 27.3913H6.84018ZM12.7391 15.6522C12.1868 15.6522 11.7391 16.0999 11.7391 16.6522V24.7826H19.5652V16.6522C19.5652 16.0999 19.1175 15.6522 18.5652 15.6522H12.7391Z" fill="white"/>
</svg>
