<svg width="23" height="20" viewBox="0 0 23 20" fill="none" xmlns="http://www.w3.org/2000/svg">
<path d="M2.59381 19.1601H15.6895C16.7344 19.1601 17.3594 18.6718 17.3594 17.8613C17.3594 15.3418 14.2051 11.8652 9.13678 11.8652C4.07819 11.8652 0.923889 15.3418 0.923889 17.8613C0.923889 18.6718 1.54889 19.1601 2.59381 19.1601ZM9.14655 10.1172C11.2364 10.1172 13.0528 8.24218 13.0528 5.80078C13.0528 3.38867 11.2364 1.60156 9.14655 1.60156C7.0567 1.60156 5.2403 3.42773 5.2403 5.82031C5.2403 8.24218 7.04694 10.1172 9.14655 10.1172Z" fill="white"/>
<path d="M18.668 7.86132C19.1563 7.86132 19.4493 7.54882 19.4493 7.1582C19.4493 7.1289 19.4493 7.08007 19.4493 7.04101C19.4493 6.49414 19.7716 6.15234 20.4551 5.70312C21.4024 5.07812 22.0762 4.50195 22.0762 3.33984C22.0762 1.71875 20.6309 0.839844 18.9708 0.839844C17.2911 0.839844 16.1876 1.64062 15.9239 2.52929C15.8751 2.69531 15.8458 2.85156 15.8458 3.01757C15.8458 3.45703 16.1876 3.6914 16.5098 3.6914C16.8419 3.6914 17.0567 3.53515 17.2325 3.30078L17.4083 3.0664C17.7501 2.49023 18.2579 2.16796 18.9122 2.16796C19.8009 2.16796 20.377 2.67578 20.377 3.41796C20.377 4.08203 19.9669 4.40429 19.1075 5C18.4141 5.48828 17.8868 6.00586 17.8868 6.96289C17.8868 7.00195 17.8868 7.04101 17.8868 7.08007C17.8868 7.59765 18.17 7.86132 18.668 7.86132ZM18.6485 10.7715C19.2051 10.7715 19.7032 10.3223 19.7032 9.75586C19.7032 9.18945 19.2149 8.74023 18.6485 8.74023C18.0723 8.74023 17.5938 9.19922 17.5938 9.75586C17.5938 10.3125 18.0821 10.7715 18.6485 10.7715Z" fill="white"/>
</svg>
