<svg width="22" height="18" viewBox="0 0 22 18" fill="none" xmlns="http://www.w3.org/2000/svg">
<path d="M3.17383 1.57227H17.8613C18.3008 1.57227 18.6523 1.2207 18.6523 0.78125C18.6523 0.341797 18.3008 0 17.8613 0H3.17383C2.72461 0 2.38281 0.341797 2.38281 0.78125C2.38281 1.2207 2.72461 1.57227 3.17383 1.57227ZM3.17383 14.0723H17.8613C18.3008 14.0723 18.6523 13.7305 18.6523 13.2812C18.6523 12.8418 18.3008 12.5 17.8613 12.5H3.17383C2.72461 12.5 2.38281 12.8418 2.38281 13.2812C2.38281 13.7305 2.72461 14.0723 3.17383 14.0723ZM3.17383 17.8516H17.8613C18.3008 17.8516 18.6523 17.5098 18.6523 17.0703C18.6523 16.6211 18.3008 16.2793 17.8613 16.2793H3.17383C2.72461 16.2793 2.38281 16.6211 2.38281 17.0703C2.38281 17.5098 2.72461 17.8516 3.17383 17.8516Z" fill="white"/>
<path d="M3.17383 7.85156H17.8613C18.3008 7.85156 18.6523 7.5 18.6523 7.06055C18.6523 6.62109 18.3008 6.2793 17.8613 6.2793H3.17383C2.73438 6.2793 2.38281 6.62109 2.38281 7.06055C2.38281 7.5 2.73438 7.85156 3.17383 7.85156ZM3.17383 10.2051H17.8711C19.6484 10.2051 21.0352 8.80859 21.0352 7.03125C21.0352 5.25391 19.6484 3.85742 17.8711 3.85742H3.17383C1.39648 3.85742 0 5.25391 0 7.03125C0 8.80859 1.39648 10.2051 3.17383 10.2051ZM3.17383 9.12109C2.00195 9.12109 1.08398 8.20312 1.08398 7.03125C1.08398 5.86914 2.00195 4.94141 3.17383 4.94141H17.8711C19.0332 4.94141 19.9512 5.86914 19.9512 7.03125C19.9512 8.20312 19.0332 9.12109 17.8711 9.12109H3.17383Z" fill="white"/>
</svg>
